<svg width="20" height="20" viewBox="0 0 20 20" fill="none" xmlns="http://www.w3.org/2000/svg">
<g id="english">
<g clip-path="url(#clip0_1_5797)">
<g id="Wrap">
<path id="Element" d="M30 0H10V20H30V0Z" fill="#E5484D"/>
<path id="Element_2" d="M10 0H-10V20H10V0Z" fill="#3E63DD"/>
</g>
</g>
<path d="M0.5 10C0.5 4.7533 4.7533 0.5 10 0.5C15.2467 0.5 19.5 4.7533 19.5 10C19.5 15.2467 15.2467 19.5 10 19.5C4.7533 19.5 0.5 15.2467 0.5 10Z" stroke="#DDDDE3"/>
</g>
<defs>
<clipPath id="clip0_1_5797">
<path d="M0 10C0 4.47715 4.47715 0 10 0C15.5228 0 20 4.47715 20 10C20 15.5228 15.5228 20 10 20C4.47715 20 0 15.5228 0 10Z" fill="white"/>
</clipPath>
</defs>
</svg>
