<svg width="20" height="20" viewBox="0 0 20 20" fill="none" xmlns="http://www.w3.org/2000/svg">
<g id="French">
<g clip-path="url(#clip0_2_1422)">
<g id="Wrap">
<path id="Element" d="M7 -1.08481e-06L1 -9.53674e-07L1 20L7 20L7 -1.08481e-06Z" fill="#084DCE"/>
<path id="Element_2" d="M13 -1.08481e-06L7 -9.53674e-07L7 20L13 20L13 -1.08481e-06Z" fill="white"/>
<path id="Element_3" d="M19 -1.08481e-06L13 -9.53674e-07L13 20L19 20L19 -1.08481e-06Z" fill="#E5484D"/>
</g>
</g>
<path d="M0.5 10C0.5 4.7533 4.7533 0.5 10 0.5C15.2467 0.5 19.5 4.7533 19.5 10C19.5 15.2467 15.2467 19.5 10 19.5C4.7533 19.5 0.5 15.2467 0.5 10Z" stroke="#DDDDE3"/>
</g>
<defs>
<clipPath id="clip0_2_1422">
<path d="M0 10C0 4.47715 4.47715 0 10 0C15.5228 0 20 4.47715 20 10C20 15.5228 15.5228 20 10 20C4.47715 20 0 15.5228 0 10Z" fill="white"/>
</clipPath>
</defs>
</svg>
